<svg xmlns="http://www.w3.org/2000/svg" viewBox="0 0 360 360"><circle cx="180" cy="180" r="88" fill="#171923" stroke="#e2ba61" stroke-width="10"/><path d="M180 92a88 88 0 0 1 0 176a44 44 0 0 0 0-88a44 44 0 0 1 0-88Z" fill="#f2e8c8"/><circle cx="180" cy="136" r="12" fill="#171923"/><circle cx="180" cy="224" r="12" fill="#f2e8c8"/><g fill="#eddcb2" stroke="#8e2c22" stroke-width="7"><path d="M162 12h36l8 83h-52Z"/><path d="M348 162v36l-83 8v-52Z"/><path d="M198 348h-36l-8-83h52Z"/><path d="M12 198v-36l83-8v52Z"/></g><g stroke="#26202a" stroke-width="7" fill="none" stroke-linecap="round"><path d="M180 31v45M329 180h-45M180 329v-45M31 180h45"/></g></svg>